<svg width="396.67" height="361.33" viewBox="0 0 595 542" fill="none" xmlns="http://www.w3.org/2000/svg">
<path d="M142.946 2.1333C141.746 3.19995 140.812 4.2666 140.812 4.39993C140.679 4.53326 139.079 13.5999 136.946 24.6666L133.346 44.6666L109.479 45.0666C84.6789 45.4666 82.1456 46 82.1456 51.2C82.1456 57.2 83.0789 57.3333 127.479 57.3333C171.746 57.3333 172.812 57.2 172.812 51.3333C172.812 46.3999 170.146 45.3333 158.812 45.3333C152.812 45.3333 147.612 45.0666 147.212 44.6666C146.812 44.2666 147.879 37.2 149.346 28.9333L152.146 13.9999L276.679 13.5999L401.079 13.3333L400.279 17.5999C392.546 61.2 361.746 227.6 361.346 228.267C360.946 228.933 337.879 229.333 310.146 229.333H259.746L258.812 224.933C256.012 212.133 244.679 199.333 232.546 195.2C213.879 189.067 190.946 199.6 182.812 217.867C181.212 221.6 179.479 225.733 179.079 226.933C178.279 229.2 175.479 229.333 145.479 229.333C127.479 229.333 112.812 229.2 112.812 228.933C112.812 228.8 115.212 215.467 118.146 199.333C121.079 183.2 123.479 169.867 123.479 169.733C123.479 169.467 129.479 169.333 136.812 169.333C149.746 169.333 150.279 169.2 151.746 166C152.946 163.2 152.812 162.267 150.812 160C148.546 157.467 146.679 157.333 113.479 157.333C76.9456 157.333 75.4789 157.6 75.4789 163.333C75.4789 168.533 77.8789 169.333 94.4123 169.333C103.079 169.333 110.146 169.867 110.146 170.533C110.146 171.067 107.479 186.133 104.146 204C99.7456 227.733 98.5456 236.933 99.6123 238.8C100.812 241.2 103.079 241.333 139.346 241.333H177.746L179.879 249.2C181.479 254.8 183.746 258.933 188.279 263.867C196.012 272.533 203.079 276.133 213.479 277.067C233.212 278.533 250.812 266.933 257.212 248L259.212 242H326.812H394.546L396.412 248.533C402.012 267.6 417.746 278.533 437.212 277.067C453.079 275.733 467.212 264.933 473.346 249.333L476.279 242L495.479 241.333C510.546 240.8 514.812 240.267 515.612 238.667C516.279 237.6 522.546 213.6 529.479 185.333C536.546 157.067 542.546 133.067 542.946 131.867C543.746 129.2 493.879 53.2 490.546 51.7333C489.212 51.3333 470.012 50.7999 447.746 50.7999C409.879 50.6666 407.346 50.5333 408.012 48.2666C408.279 47.0666 410.279 36.7999 412.279 25.5999C415.746 5.99994 415.746 5.19995 413.479 2.66663C411.079 -3.05176e-05 408.812 -3.05176e-05 278.012 -3.05176e-05C158.812 -3.05176e-05 144.812 0.266632 142.946 2.1333ZM506.812 97.3333C518.946 115.733 528.812 131.867 528.812 133.067C528.812 134.267 523.479 156.267 517.079 182L505.346 228.667H490.812H476.412L474.546 222.133C468.146 200.133 447.346 188.8 425.212 195.333C412.546 199.067 401.879 209.6 397.079 222.933L394.812 229.333H385.212C377.612 229.333 375.479 228.933 375.479 227.333C375.479 226.267 382.146 189.6 390.146 145.867C398.279 102.133 404.812 65.7333 404.812 65.2C404.812 64.5333 422.812 64 444.812 64H484.946L506.812 97.3333ZM231.346 208.667C237.612 211.867 244.546 220.933 246.012 227.867C248.146 238 245.346 247.6 237.612 255.733C231.746 262.133 226.546 264.4 218.146 264.533C205.479 264.533 195.479 257.2 191.479 244.8C187.346 231.867 196.012 214.4 209.479 208.533C214.946 206.133 226.812 206.267 231.346 208.667ZM451.879 211.067C458.546 216.133 462.146 222.8 463.079 231.2C465.746 257.2 436.146 274.8 417.346 258.4C401.612 244.533 405.346 219.867 424.812 209.2C431.879 205.333 445.479 206.133 451.879 211.067Z" fill="black"/>
<path d="M419.079 76.2666C415.612 78.8 407.612 124.267 410.012 127.2C411.612 129.067 417.612 129.333 457.479 129.333C500.012 129.333 503.212 129.2 505.212 126.933C506.546 125.6 507.479 123.733 507.479 122.933C507.479 120.933 479.746 78.4 477.079 76.2666C475.612 75.0666 467.612 74.6666 448.146 74.6666C428.812 74.6666 420.679 75.0666 419.079 76.2666ZM478.546 101.333C483.479 108.667 487.479 114.933 487.479 115.333C487.479 115.733 472.946 116 455.346 116H423.212L423.879 112.267C424.279 110.267 425.346 104 426.279 98.2666L428.012 88H448.812H469.746L478.546 101.333Z" fill="black"/>
<path d="M13.6122 87.4666C10.6789 90.4 10.9456 94.1333 14.4122 96.5333C17.0789 98.4 27.8789 98.6666 104.812 98.6666C181.746 98.6666 192.546 98.4 195.212 96.5333C198.412 94.2666 199.079 89.4666 196.546 86.9333C195.346 85.7333 173.212 85.3333 105.346 85.3333C25.6122 85.3333 15.4789 85.6 13.6122 87.4666Z" fill="black"/>
<path d="M43.2123 124.133C39.8789 126 40.0123 132.8 43.3456 134.667C45.0789 135.467 67.8789 136 108.146 136C148.412 136 171.212 135.467 172.946 134.667C174.546 133.733 175.479 131.867 175.479 129.333C175.479 126.8 174.546 124.933 172.946 124C169.346 122.133 46.4123 122.267 43.2123 124.133Z" fill="black"/>
<path d="M39.6123 313.867C37.7456 316.133 -0.787715 497.2 0.0122845 499.6C0.545618 500.933 4.67895 501.333 16.0123 501.333C33.879 501.333 34.5456 500.933 36.8123 489.6C37.7456 485.467 40.679 471.467 43.3456 458.667L48.1456 435.333L63.6123 434.933C76.279 434.667 79.479 434.133 81.079 432.267C82.8123 430.4 87.479 410.8 87.479 405.6C87.479 404.4 83.3456 404 71.479 404C62.679 404 55.479 403.467 55.479 402.8C55.479 401.467 67.2123 346 68.279 342.267C68.9456 340.267 71.079 340 88.279 340C106.946 340 107.612 339.867 108.812 336.933C110.812 332 114.279 314.533 113.479 313.2C112.946 312.533 97.879 312 76.9456 312C48.4123 312 40.8123 312.4 39.6123 313.867Z" fill="black"/>
<path d="M136.946 314.933C134.546 321.867 97.8789 497.6 98.6789 499.333C99.3456 501.067 104.679 501.333 134.546 501.333C161.212 501.333 170.146 500.933 171.212 499.6C173.079 497.467 177.212 476.267 176.279 473.867C175.746 472.4 171.879 472 157.479 472C144.012 472 139.479 471.6 139.479 470.267C139.479 468.933 146.546 434.4 149.479 421.6C150.146 418.8 150.812 418.667 162.679 418.667C177.746 418.667 178.412 418.133 181.346 403.467C184.812 386.8 185.612 388 170.146 388H156.946L157.746 383.6C158.279 381.333 160.412 370.667 162.679 360L166.812 340.667L185.479 340.267C195.746 340.133 204.546 339.467 205.212 338.8C206.812 337.2 211.612 314.667 210.679 313.2C210.279 312.533 193.746 312 174.012 312H138.146L136.946 314.933Z" fill="black"/>
<path d="M237.212 313.6C236.679 314.533 227.479 356.4 216.679 406.667C203.612 468 197.612 498.533 198.546 499.6C199.479 500.8 204.412 501.333 214.946 501.333C229.212 501.333 230.146 501.2 231.879 498.267C232.946 496.667 237.212 478.667 241.479 458.267L249.212 421.333H254.946H260.546L258.812 428.933C252.012 458.667 244.546 497.467 245.212 499.2C245.879 500.933 248.679 501.333 261.346 501.333C275.879 501.333 276.812 501.2 278.679 498.267C279.746 496.667 284.279 477.867 288.679 456.4C297.212 415.467 297.346 412.533 291.612 409.467C290.146 408.667 287.612 408 285.879 407.867C283.879 407.733 284.679 407.2 288.412 406.267C295.346 404.267 300.412 399.6 302.146 393.467C305.212 381.867 316.812 325.067 316.812 321.333C316.812 319.067 315.612 316.133 314.146 314.667C311.612 312.133 309.746 312 274.946 312C247.079 312 238.012 312.4 237.212 313.6ZM276.812 342.933C276.679 344.667 274.412 356.133 271.612 368.667L266.679 391.333L261.079 391.733C255.746 392.133 255.479 392 256.146 389.067C256.546 387.333 258.946 376.133 261.479 364.133C264.012 352.133 266.546 341.867 266.946 341.2C267.346 340.533 269.746 340 272.279 340C276.146 340 276.812 340.4 276.812 342.933Z" fill="black"/>
<path d="M344.812 314.933C342.279 320.667 296.812 539.2 297.879 540.267C298.546 540.933 317.879 541.2 340.946 541.067L382.812 540.667L385.079 531.333C386.412 526.133 387.612 519.6 387.746 516.667L388.146 511.333L363.079 510.933C340.012 510.667 338.012 510.4 338.679 508.267C341.346 499.6 379.479 315.2 378.946 313.867C378.412 312.4 374.412 312 362.146 312C346.812 312 346.012 312.133 344.812 314.933Z" fill="black"/>
<path d="M410.679 314.533C408.012 316.133 405.612 319.2 404.279 322.933C401.479 330.533 368.812 485.2 368.812 491.2C368.812 494.533 369.746 496.533 372.279 498.533C375.612 501.2 377.479 501.333 406.679 501.333C440.812 501.333 444.546 500.533 448.946 492.667C450.946 489.2 486.146 326.267 486.146 320.667C486.146 319.467 484.679 317.067 482.812 315.333L479.612 312H447.212C417.612 312 414.412 312.267 410.679 314.533ZM446.012 342.267C446.012 343.6 439.879 373.2 432.412 408L418.812 471.333L413.079 471.733C407.746 472.133 407.479 472 408.146 469.067C409.212 464.4 435.479 341.067 435.479 340.533C435.479 340.267 437.879 340 440.812 340C445.079 340 446.146 340.533 446.012 342.267Z" fill="black"/>
<path d="M518.412 314.667C516.012 316.133 513.212 319.333 512.279 321.733C511.212 324 502.812 362 493.612 406C484.279 450 476.412 487.2 476.146 488.667C475.212 493.333 476.946 497.333 480.946 499.333C483.879 500.933 490.946 501.333 514.812 501.333C548.412 501.333 552.412 500.533 556.412 492.933C558.546 488.8 575.479 410.267 575.479 404.533C575.479 402.267 574.546 401.2 572.146 400.533C567.212 399.333 543.746 400.533 542.279 402C541.479 402.8 537.879 417.733 534.146 435.333C530.412 452.933 527.079 468.4 526.679 469.6C526.146 471.333 524.546 472 520.679 472C517.879 472 515.479 471.733 515.479 471.333C515.479 470.267 542.146 344.933 542.946 342.267C543.612 340.267 545.879 340 566.012 340C582.412 340 588.812 339.6 589.879 338.267C591.612 336.133 595.879 315.067 594.812 313.333C594.279 312.533 580.946 312 558.412 312C525.079 312 522.546 312.133 518.412 314.667Z" fill="black"/>
</svg>
